<svg width="41" height="40" viewBox="0 0 41 40" fill="none" xmlns="http://www.w3.org/2000/svg">
<path d="M3.80803 34.1919C3.92525 34.3091 4.08423 34.375 4.25 34.375H12.375C12.5408 34.375 12.6998 34.3091 12.817 34.1919L14.25 32.7589V38.125C14.25 38.2908 14.3159 38.4497 14.4331 38.5669C14.5503 38.6841 14.7092 38.75 14.875 38.75H26.125C26.2908 38.75 26.4497 38.6841 26.5669 38.5669C26.6841 38.4497 26.75 38.2908 26.75 38.125V32.7589L28.183 34.1919C28.3002 34.3091 28.4592 34.375 28.625 34.375H36.75C36.9158 34.375 37.0748 34.3091 37.192 34.1919L39.067 32.3169C39.1842 32.1997 39.25 32.0408 39.25 31.875V30C39.25 29.8342 39.1842 29.6753 39.0669 29.5581C38.9497 29.4409 38.7908 29.375 38.625 29.375H36.125C36.125 29.2092 36.0592 29.0503 35.9419 28.9331C35.8247 28.8159 35.6658 28.75 35.5 28.75H34.25C34.1471 28.75 34.0458 28.7754 33.9551 28.824C33.8644 28.8725 33.787 28.9427 33.73 29.0283L32.8267 30.3833L29.7194 28.3118L28.3027 25.8325C27.5767 24.5555 26.3775 23.6152 24.9642 23.2147L23.5453 22.8093C24.004 22.1734 24.2506 21.4091 24.25 20.625V17.5C24.2506 16.8227 24.0378 16.1624 23.6418 15.6129C23.2457 15.0634 22.6866 14.6527 22.0438 14.4392L20.4039 13.8925C19.9866 13.7534 19.5422 13.7154 19.1074 13.7817C18.6725 13.848 18.2597 14.0167 17.9028 14.2739C17.546 14.5311 17.2554 14.8694 17.0549 15.261C16.8545 15.6525 16.75 16.0861 16.75 16.526V20.625C16.7494 21.4091 16.996 22.1734 17.4547 22.8093L16.0358 23.2147C14.6225 23.6152 13.4233 24.5555 12.6973 25.8325L11.2806 28.3118L8.17334 30.3833L7.27002 29.0283C7.21295 28.9427 7.13562 28.8725 7.04491 28.824C6.95419 28.7754 6.85289 28.75 6.75 28.75H5.5C5.33424 28.75 5.17527 28.8159 5.05806 28.9331C4.94085 29.0503 4.875 29.2092 4.875 29.375H2.375C2.20924 29.375 2.05027 29.4409 1.93306 29.5581C1.81585 29.6753 1.75 29.8342 1.75 30V31.875C1.75 32.0408 1.81583 32.1997 1.93303 32.3169L3.80803 34.1919ZM33.625 31.4392L34.5845 30H34.875V31.875H36.125V30.625H38V31.6161L36.4911 33.125H33.625V31.4392ZM18 16.526C18 16.2842 18.0575 16.0458 18.1676 15.8306C18.2778 15.6154 18.4376 15.4294 18.6337 15.288C18.8299 15.1466 19.0568 15.0539 19.2958 15.0174C19.5349 14.981 19.7791 15.0018 20.0085 15.0783L21.6486 15.625C21.9398 15.7218 22.2044 15.8852 22.4214 16.1022C22.6384 16.3192 22.8018 16.5838 22.8986 16.875H18V16.526ZM18 18.125H23V20.625C23 21.288 22.7366 21.9239 22.2678 22.3928C21.7989 22.8616 21.163 23.125 20.5 23.125C19.837 23.125 19.2011 22.8616 18.7322 22.3928C18.2634 21.9239 18 21.288 18 20.625V18.125ZM20.3874 26.875H20.6126L21.6965 32.2946L20.5 33.4911L19.3035 32.2946L20.3874 26.875ZM19.7693 24.303C20.2517 24.399 20.7483 24.399 21.2307 24.303L20.7019 25.625H20.2981L19.7693 24.303ZM8.625 31.5845L12.0967 29.27C12.1774 29.2162 12.2445 29.1443 12.2927 29.0601L13.7826 26.4527C14.3473 25.4594 15.2799 24.7281 16.3792 24.4167L18.2542 23.881L19.2257 26.3096L18.0121 32.3774C17.992 32.4783 17.997 32.5826 18.0268 32.6811C18.0566 32.7796 18.1103 32.8692 18.183 32.9419L20.058 34.8169C20.1752 34.9342 20.3342 35 20.5 35C20.6658 35 20.8248 34.9342 20.942 34.8169L22.817 32.9419C22.8897 32.8692 22.9434 32.7796 22.9732 32.6811C23.003 32.5826 23.008 32.4783 22.9879 32.3774L21.7743 26.3096L22.7458 23.881L24.6207 24.4167C25.72 24.7281 26.6527 25.4594 27.2174 26.4527L28.7073 29.0601C28.7555 29.1443 28.8226 29.2162 28.9033 29.27L32.375 31.5845V33.125H28.8839L26.567 30.8081C26.4796 30.7207 26.3682 30.6611 26.247 30.637C26.1257 30.6129 26 30.6253 25.8858 30.6726C25.7716 30.7199 25.674 30.8 25.6053 30.9028C25.5367 31.0055 25.5 31.1264 25.5 31.25V37.5H15.5V31.25C15.5 31.1264 15.4633 31.0055 15.3947 30.9028C15.326 30.8 15.2284 30.7199 15.1142 30.6726C15 30.6253 14.8743 30.6129 14.753 30.637C14.6318 30.6611 14.5204 30.7207 14.433 30.8081L12.1161 33.125H8.625V31.5845ZM3 30.625H4.875V31.875H6.125V30H6.41553L7.375 31.4392V33.125H4.50887L3 31.6161V30.625Z" fill="#1E8E31"/>
<path d="M2.375 25.625H4.25V27.5C4.25 27.6658 4.31585 27.8247 4.43306 27.9419C4.55027 28.0591 4.70924 28.125 4.875 28.125H9.875C10.0408 28.125 10.1997 28.0591 10.3169 27.9419C10.4341 27.8247 10.5 27.6658 10.5 27.5V25.625H12.375C12.5408 25.625 12.6997 25.5591 12.8169 25.4419C12.9341 25.3247 13 25.1658 13 25V22.5C12.9991 21.6715 12.6695 20.8772 12.0837 20.2913C11.4978 19.7055 10.7035 19.3759 9.875 19.375H4.875C4.04649 19.3759 3.25218 19.7055 2.66633 20.2913C2.08048 20.8772 1.75094 21.6715 1.75 22.5V25C1.75 25.1658 1.81585 25.3247 1.93306 25.4419C2.05027 25.5591 2.20924 25.625 2.375 25.625ZM9.25 26.875H5.5V24.375C5.5 23.8777 5.69754 23.4008 6.04917 23.0492C6.40081 22.6975 6.87772 22.5 7.375 22.5C7.87228 22.5 8.34919 22.6975 8.70083 23.0492C9.05246 23.4008 9.25 23.8777 9.25 24.375V26.875ZM3 22.5C3.00056 22.0029 3.19829 21.5263 3.5498 21.1748C3.9013 20.8233 4.37789 20.6256 4.875 20.625H9.875C10.3721 20.6256 10.8487 20.8233 11.2002 21.1748C11.5517 21.5263 11.7494 22.0029 11.75 22.5V24.375H10.5C10.5 23.5462 10.1708 22.7513 9.58471 22.1653C8.99866 21.5792 8.2038 21.25 7.375 21.25C6.5462 21.25 5.75134 21.5792 5.16529 22.1653C4.57924 22.7513 4.25 23.5462 4.25 24.375H3V22.5Z" fill="#1E8E31"/>
<path d="M7.375 25.625C7.72018 25.625 8 25.3452 8 25C8 24.6548 7.72018 24.375 7.375 24.375C7.02982 24.375 6.75 24.6548 6.75 25C6.75 25.3452 7.02982 25.625 7.375 25.625Z" fill="#1E8E31"/>
<path d="M33 16.25C32.5029 16.2506 32.0263 16.4483 31.6748 16.7998C31.3233 17.1513 31.1256 17.6279 31.125 18.125V25.625C31.1256 26.1221 31.3233 26.5987 31.6748 26.9502C32.0263 27.3017 32.5029 27.4994 33 27.5H36.75C37.2471 27.4994 37.7237 27.3017 38.0752 26.9502C38.4267 26.5987 38.6244 26.1221 38.625 25.625V18.125C38.6244 17.6279 38.4267 17.1513 38.0752 16.7998C37.7237 16.4483 37.2471 16.2506 36.75 16.25H33ZM37.375 18.125V25.625C37.3748 25.7907 37.3089 25.9496 37.1917 26.0667C37.0746 26.1839 36.9157 26.2498 36.75 26.25H33C32.8343 26.2498 32.6754 26.1839 32.5583 26.0667C32.4411 25.9496 32.3752 25.7907 32.375 25.625V18.125C32.3752 17.9593 32.4411 17.8004 32.5583 17.6833C32.6754 17.5661 32.8343 17.5002 33 17.5H33.3661L33.808 17.9419C33.9252 18.0591 34.0842 18.125 34.25 18.125H35.5C35.6658 18.125 35.8248 18.0591 35.942 17.9419L36.3839 17.5H36.75C36.9157 17.5002 37.0746 17.5661 37.1917 17.6833C37.3089 17.8004 37.3748 17.9593 37.375 18.125Z" fill="#1E8E31"/>
<path d="M6.125 18.125H13.625C14.1221 18.1244 14.5987 17.9267 14.9502 17.5752C15.3017 17.2237 15.4994 16.7471 15.5 16.25V8.01778C15.5007 7.77145 15.4525 7.52743 15.3582 7.29985C15.264 7.07227 15.1255 6.86565 14.9508 6.69194L12.5581 4.29921C12.3844 4.12455 12.1778 3.98608 11.9502 3.89181C11.7226 3.79754 11.4786 3.74934 11.2323 3.75001H6.125C5.62789 3.75058 5.15131 3.9483 4.7998 4.29981C4.4483 4.65132 4.25057 5.1279 4.25 5.62501V16.25C4.25057 16.7471 4.4483 17.2237 4.7998 17.5752C5.15131 17.9267 5.62789 18.1244 6.125 18.125ZM12.375 5.88391L13.3661 6.87501H12.375V5.88391ZM5.5 5.62501C5.50019 5.4593 5.5661 5.30044 5.68327 5.18327C5.80044 5.06611 5.9593 5.0002 6.125 5.00001H11.125V7.50001C11.125 7.66577 11.1909 7.82474 11.3081 7.94195C11.4253 8.05916 11.5842 8.12501 11.75 8.12501H14.25V16.25C14.2498 16.4157 14.1839 16.5746 14.0667 16.6917C13.9496 16.8089 13.7907 16.8748 13.625 16.875H6.125C5.9593 16.8748 5.80044 16.8089 5.68327 16.6917C5.5661 16.5746 5.50019 16.4157 5.5 16.25V5.62501Z" fill="#1E8E31"/>
<path d="M13 14.375H6.75V15.625H13V14.375Z" fill="#1E8E31"/>
<path d="M13 11.875H9.25V13.125H13V11.875Z" fill="#1E8E31"/>
<path d="M8 11.875H6.75V13.125H8V11.875Z" fill="#1E8E31"/>
<path d="M13 9.375H11.125V10.625H13V9.375Z" fill="#1E8E31"/>
<path d="M9.875 9.375H6.75V10.625H9.875V9.375Z" fill="#1E8E31"/>
<path d="M9.875 6.875H6.75V8.125H9.875V6.875Z" fill="#1E8E31"/>
<path d="M33.7211 2.9433L32.9142 1.56012C32.866 1.4775 32.7995 1.40705 32.7199 1.35418C32.6402 1.30131 32.5494 1.26744 32.4545 1.25517C32.3597 1.24289 32.2633 1.25255 32.1728 1.2834C32.0823 1.31424 32 1.36545 31.9324 1.43308L25.7541 7.61136L23.3448 8.81601C23.2547 8.86102 23.1769 8.92725 23.1181 9.00901L23.1179 9.00884L23.1127 9.016L23.1119 9.01706L21.64 11.0531C21.5731 11.1456 21.5328 11.2547 21.5235 11.3686C21.5143 11.4824 21.5364 11.5966 21.5875 11.6987L22.4404 13.4045C22.4923 13.5083 22.5721 13.5956 22.6708 13.6567C22.7695 13.7177 22.8833 13.75 22.9994 13.75H25.1131L27.4404 18.4045C27.477 18.478 27.5278 18.5435 27.5898 18.5973C27.6518 18.6511 27.7238 18.6922 27.8017 18.7181C27.8796 18.7441 27.9618 18.7544 28.0437 18.7486C28.1256 18.7427 28.2055 18.7208 28.2789 18.684L29.5289 18.059C29.6327 18.0071 29.72 17.9273 29.781 17.8286C29.8421 17.7299 29.8744 17.6161 29.8744 17.5V14.375C29.8744 14.278 29.8518 14.1823 29.8084 14.0955L28.8952 12.2691L36.9211 9.97598C37.0127 9.94982 37.097 9.90307 37.1678 9.83932C37.2385 9.77556 37.2938 9.69649 37.3293 9.60813C37.3648 9.51977 37.3796 9.42446 37.3727 9.32948C37.3658 9.23451 37.3372 9.14237 37.2892 9.06011L36.1858 7.16855L36.277 7.10775C36.8035 6.75696 37.1735 6.21576 37.3093 5.59786C37.445 4.97997 37.336 4.3335 37.0051 3.79432C36.6742 3.25514 36.1471 2.86523 35.5347 2.70653C34.9223 2.54783 34.2722 2.6327 33.7211 2.9433ZM23.3856 12.5L22.8749 11.4785L23.5266 10.577L24.4881 12.5H23.3856ZM24.4629 9.65452L25.8448 8.96353L27.1608 11.5955L25.7789 12.2865L24.4629 9.65452ZM28.6244 17.1137L28.2789 17.2865L26.3379 13.4045L27.7198 12.7135L28.6244 14.5226V17.1137ZM28.3264 11.1315L26.8848 8.24845L32.243 2.89026L35.8042 8.99507L28.3264 11.1315ZM35.9455 4.45841C36.1039 4.72165 36.1547 5.03584 36.0873 5.33559C36.0199 5.63534 35.8395 5.89755 35.5837 6.06767L35.5548 6.08689L34.351 4.02322C34.6216 3.87614 34.9386 3.83929 35.2357 3.92039C35.5328 4.00148 35.7871 4.19425 35.9455 4.45841Z" fill="#1E8E31"/>
</svg>
