<svg width="41" height="40" viewBox="0 0 41 40" fill="none" xmlns="http://www.w3.org/2000/svg">
<path d="M37.5 34.2612C38.1906 33.6787 38.625 32.815 38.625 31.875V26.875C38.625 24.8363 37.6394 23.0288 36.125 21.8869V8.125H26.125V3.125H23.625V1.875H22.375V3.125H21.125V0.625H19.875V3.125H18.625V1.875H17.375V3.125H14.875V8.125H4.875V21.8869C3.36063 23.0288 2.375 24.8363 2.375 26.875V35.2825C1.58938 36.23 1.125 37.4419 1.125 38.75V39.375H39.8737L39.875 38.7506C39.8781 36.9087 38.9562 35.2481 37.5 34.2612ZM37.375 26.875V31.875C37.375 32.6437 36.8956 33.33 36.1931 33.6113C36.0556 33.565 35.9156 33.5225 35.7731 33.4869L34.7656 33.235L34.6213 32.6588C35.5187 32.1088 36.125 31.1275 36.125 30V26.25H35.5C34.5356 26.25 33.64 25.7706 33.105 24.9681L33 24.8106V23.125H31.75V24.8106L31.645 24.9681C31.11 25.7706 30.2144 26.25 29.25 26.25H28.625V30C28.625 31.1275 29.2312 32.1087 30.1287 32.6581L29.9844 33.2337L28.9838 33.4825C28.8381 33.5187 28.695 33.5619 28.5538 33.6094C27.8538 33.3281 27.375 32.6425 27.375 31.875V26.875C27.375 24.1181 29.6181 21.875 32.375 21.875C35.1319 21.875 37.375 24.1181 37.375 26.875ZM25.5 25.4713C25.5 25.6325 25.475 25.7894 25.4537 25.9475C25.095 25.7481 24.6887 25.625 24.25 25.625H23.625H23.5175C22.5444 25.625 21.6294 25.2463 20.9419 24.5581L20.5 24.1156L20.0581 24.5581C19.37 25.2463 18.4556 25.625 17.4825 25.625H17.375H16.75C16.3112 25.625 15.905 25.7481 15.5462 25.9475C15.525 25.7894 15.5 25.6325 15.5 25.4713C15.5 23.4881 17.1131 21.875 19.0963 21.875H21.9037C23.8869 21.875 25.5 23.4881 25.5 25.4713ZM26.4381 34.94C25.7581 34.2506 24.8913 33.7363 23.8981 33.4875L22.8906 33.2356L22.7463 32.6594C23.4738 32.2138 24.0112 31.4881 24.1869 30.6256H24.25C25.0006 30.6256 25.6663 30.2869 26.125 29.7619V31.875C26.125 32.8144 26.5594 33.6775 27.2494 34.2606C26.9575 34.4588 26.6869 34.6875 26.4381 34.94ZM14.875 34.6444V29.7612C15.3337 30.2862 15.9994 30.625 16.75 30.625H16.8131C16.9887 31.4875 17.5263 32.2131 18.2537 32.6581L18.1094 33.2337L17.1087 33.4825C16.26 33.6944 15.5031 34.1012 14.875 34.6444ZM16.75 29.375C16.0606 29.375 15.5 28.8144 15.5 28.125C15.5 27.4356 16.0606 26.875 16.75 26.875V29.375ZM21.125 31.875H19.875C18.8412 31.875 18 31.0338 18 30V26.8481C18.9163 26.7525 19.7775 26.4031 20.5 25.8344C21.2225 26.4031 22.0837 26.7519 23 26.8481V30C23 31.0338 22.1588 31.875 21.125 31.875ZM19.4363 33.0806C19.5813 33.1012 19.725 33.125 19.875 33.125H21.125C21.275 33.125 21.4187 33.1012 21.5637 33.0806L21.6969 33.6125L20.5 35.2081L19.3031 33.6125L19.4363 33.0806ZM24.25 26.875C24.9394 26.875 25.5 27.4356 25.5 28.125C25.5 28.8144 24.9394 29.375 24.25 29.375V26.875ZM17.4113 34.6963L18.3737 34.4569L20.5 37.2919L22.6256 34.4575L23.5938 34.7C25.2494 35.1144 26.4531 36.4794 26.6981 38.125H14.3019C14.5463 36.4756 15.7525 35.1081 17.4113 34.6963ZM27.22 35.9463C27.7725 35.34 28.4856 34.895 29.2856 34.6956L29.8906 34.545C29.9488 35.8369 30.3469 37.0669 31.0556 38.1244H27.9606C27.8713 37.3394 27.6144 36.6 27.22 35.9463ZM32.375 26.0694C33.0181 26.8156 33.9038 27.305 34.875 27.4525V30C34.875 31.0338 34.0337 31.875 33 31.875H31.75C30.7162 31.875 29.875 31.0338 29.875 30V27.4525C30.8463 27.305 31.7319 26.8156 32.375 26.0694ZM31.75 33.125H33C33.15 33.125 33.2938 33.1012 33.4388 33.0806L33.625 33.8256V34.2231C33.625 34.2744 33.6187 34.3237 33.6175 34.375H31.1325C31.1313 34.3244 31.125 34.2744 31.125 34.2231V33.8263L31.3113 33.0806C31.4563 33.1012 31.6 33.125 31.75 33.125ZM31.3025 35.625H33.4475C33.2506 36.4188 32.8894 37.1606 32.375 37.8075C31.8606 37.1606 31.4994 36.4188 31.3025 35.625ZM34.875 21.1506C34.1087 20.8144 33.2637 20.625 32.375 20.625C29.8019 20.625 27.5881 22.1894 26.6306 24.4156C26.2744 22.8187 25.1281 21.52 23.625 20.9463V9.375H34.875V21.1506ZM22.375 8.125V20.6487C22.22 20.6337 22.0631 20.625 21.9037 20.625H19.0963C17.9762 20.625 16.9469 21.0106 16.125 21.6512V6.875H24.875V8.125H22.375ZM24.875 4.375V5.625H16.125V4.375H24.875ZM6.125 9.375H14.875V23.0988C14.6456 23.5056 14.4738 23.9475 14.3694 24.4156C13.4119 22.1887 11.1981 20.625 8.625 20.625C7.73625 20.625 6.89125 20.8144 6.125 21.1506V9.375ZM8.625 21.875C11.3819 21.875 13.625 24.1181 13.625 26.875V34.1831C13.1337 33.8688 12.5944 33.63 12.0231 33.4869L11.0156 33.235L10.8713 32.6588C11.7688 32.1088 12.375 31.1275 12.375 30V26.25H10.225C9.4325 26.25 8.6975 25.8562 8.25813 25.1969C7.91437 24.6825 7.34 24.375 6.72125 24.375C5.70313 24.375 4.875 25.2025 4.875 26.22V30C4.875 31.1275 5.48125 32.1087 6.37875 32.6581L6.23438 33.2337L5.23375 33.4825C4.65062 33.6281 4.11063 33.8662 3.625 34.1756V26.875C3.625 24.1181 5.86812 21.875 8.625 21.875ZM9.25 31.875H8C6.96625 31.875 6.125 31.0338 6.125 30V26.22C6.125 25.8919 6.3925 25.625 6.72125 25.625C6.92063 25.625 7.10625 25.7244 7.2175 25.8906C7.88875 26.8981 9.01313 27.5 10.225 27.5H11.125V30C11.125 31.0338 10.2837 31.875 9.25 31.875ZM7.56125 33.0806C7.70625 33.1012 7.85 33.125 8 33.125H9.25C9.4 33.125 9.54375 33.1012 9.68875 33.0806L9.87 33.8037C9.84062 34.4681 9.29562 35 8.625 35C7.95438 35 7.40937 34.4681 7.38062 33.8044L7.56125 33.0806ZM5.53625 34.6963L6.25813 34.5169C6.58375 35.5187 7.515 36.25 8.625 36.25C9.73438 36.25 10.6656 35.5194 10.9919 34.5175L11.7188 34.7C12.5163 34.8994 13.2275 35.3438 13.7781 35.9487C13.3863 36.6012 13.1294 37.3394 13.0394 38.1256H2.42C2.66375 36.4744 3.87687 35.1087 5.53625 34.6963ZM33.6944 38.125C34.4031 37.0681 34.8006 35.8381 34.8594 34.5469L35.4688 34.6994C37.125 35.1144 38.335 36.4781 38.58 38.1244L33.6944 38.125Z" fill="#1E8E31"/>
<path d="M17.375 8.125H18.625V9.375H17.375V8.125Z" fill="#1E8E31"/>
<path d="M19.875 8.125H21.125V9.375H19.875V8.125Z" fill="#1E8E31"/>
<path d="M17.375 10.625H18.625V11.875H17.375V10.625Z" fill="#1E8E31"/>
<path d="M19.875 10.625H21.125V11.875H19.875V10.625Z" fill="#1E8E31"/>
<path d="M19.875 13.125H21.125V14.375H19.875V13.125Z" fill="#1E8E31"/>
<path d="M17.375 13.125H18.625V14.375H17.375V13.125Z" fill="#1E8E31"/>
<path d="M17.375 15.625H18.625V16.875H17.375V15.625Z" fill="#1E8E31"/>
<path d="M19.875 15.625H21.125V16.875H19.875V15.625Z" fill="#1E8E31"/>
<path d="M19.875 18.125H21.125V19.375H19.875V18.125Z" fill="#1E8E31"/>
<path d="M17.375 18.125H18.625V19.375H17.375V18.125Z" fill="#1E8E31"/>
<path d="M24.875 10.625H26.125V11.875H24.875V10.625Z" fill="#1E8E31"/>
<path d="M24.875 15.625H26.125V16.875H24.875V15.625Z" fill="#1E8E31"/>
<path d="M24.875 13.125H26.125V14.375H24.875V13.125Z" fill="#1E8E31"/>
<path d="M24.875 18.125H26.125V19.375H24.875V18.125Z" fill="#1E8E31"/>
<path d="M27.375 10.625H28.625V11.875H27.375V10.625Z" fill="#1E8E31"/>
<path d="M27.375 18.125H28.625V19.375H27.375V18.125Z" fill="#1E8E31"/>
<path d="M27.375 15.625H28.625V16.875H27.375V15.625Z" fill="#1E8E31"/>
<path d="M27.375 13.125H28.625V14.375H27.375V13.125Z" fill="#1E8E31"/>
<path d="M29.875 10.625H31.125V11.875H29.875V10.625Z" fill="#1E8E31"/>
<path d="M29.875 13.125H31.125V14.375H29.875V13.125Z" fill="#1E8E31"/>
<path d="M29.875 15.625H31.125V16.875H29.875V15.625Z" fill="#1E8E31"/>
<path d="M29.875 18.125H31.125V19.375H29.875V18.125Z" fill="#1E8E31"/>
<path d="M32.375 10.625H33.625V11.875H32.375V10.625Z" fill="#1E8E31"/>
<path d="M32.375 15.625H33.625V16.875H32.375V15.625Z" fill="#1E8E31"/>
<path d="M32.375 13.125H33.625V14.375H32.375V13.125Z" fill="#1E8E31"/>
<path d="M32.375 18.125H33.625V19.375H32.375V18.125Z" fill="#1E8E31"/>
<path d="M7.375 18.125H8.625V19.375H7.375V18.125Z" fill="#1E8E31"/>
<path d="M7.375 13.125H8.625V14.375H7.375V13.125Z" fill="#1E8E31"/>
<path d="M7.375 10.625H8.625V11.875H7.375V10.625Z" fill="#1E8E31"/>
<path d="M7.375 15.625H8.625V16.875H7.375V15.625Z" fill="#1E8E31"/>
<path d="M9.875 18.125H11.125V19.375H9.875V18.125Z" fill="#1E8E31"/>
<path d="M9.875 15.625H11.125V16.875H9.875V15.625Z" fill="#1E8E31"/>
<path d="M9.875 13.125H11.125V14.375H9.875V13.125Z" fill="#1E8E31"/>
<path d="M9.875 10.625H11.125V11.875H9.875V10.625Z" fill="#1E8E31"/>
<path d="M12.375 15.625H13.625V16.875H12.375V15.625Z" fill="#1E8E31"/>
<path d="M12.375 18.125H13.625V19.375H12.375V18.125Z" fill="#1E8E31"/>
<path d="M12.375 13.125H13.625V14.375H12.375V13.125Z" fill="#1E8E31"/>
<path d="M12.375 10.625H13.625V11.875H12.375V10.625Z" fill="#1E8E31"/>
</svg>
