<svg width="41" height="40" viewBox="0 0 41 40" fill="none" xmlns="http://www.w3.org/2000/svg">
<g clip-path="url(#clip0_0_670)">
<path d="M13.8651 29.7619L13.9281 29.3039C14.0918 28.1125 13.4585 26.9548 12.3746 26.4645L8.13496 24.5468C7.2966 24.1676 6.86692 23.2161 7.13168 22.3251C7.4409 21.285 8.56402 20.7378 9.55863 21.1429L15.4979 23.5618C17.0672 24.2011 18.1288 25.7041 18.2198 27.4158L18.4604 34.8578H12.1288C12.0104 33.7761 11.4294 32.7976 10.5346 32.1854L4.45629 28.0263C3.43121 27.3249 2.74918 26.2145 2.58066 24.9727L1.29965 15.0611C1.1666 14.0809 1.76731 13.1514 2.70699 12.8833C3.78106 12.5769 4.88996 13.242 5.14191 14.3436L7.0541 22.8834" stroke="#1E8E31" stroke-width="1.5625" stroke-miterlimit="10" stroke-linecap="round" stroke-linejoin="round"/>
<path d="M27.1345 29.7657L27.0715 29.3078C26.9077 28.1163 27.5411 26.9586 28.625 26.4683L32.8645 24.5507C33.7029 24.1714 34.1326 23.2199 33.8678 22.3289C33.5587 21.2888 32.4355 20.7416 31.4409 21.1467L25.5016 23.5657C23.9323 24.2049 22.8707 25.7079 22.7796 27.4197L22.5391 34.8616H28.8706C28.9891 33.7799 29.57 32.8014 30.4648 32.1892L36.5432 28.0301C37.5683 27.3287 38.2503 26.2183 38.4188 24.9765L39.6998 15.065C39.8328 14.0848 39.2321 13.1554 38.2924 12.8872C37.2184 12.5808 36.1095 13.2459 35.8575 14.3475L33.945 22.9019" stroke="#1E8E31" stroke-width="1.5625" stroke-miterlimit="10" stroke-linecap="round" stroke-linejoin="round"/>
<path d="M21.2491 6.5778L20.5003 7.32663L19.7516 6.57788C17.8353 4.66163 14.7284 4.66163 12.8122 6.57788C10.8959 8.49413 10.8959 11.601 12.8122 13.5173L18.683 19.3882C19.6867 20.3919 21.314 20.3919 22.3177 19.3882L28.1885 13.5173C30.1048 11.6011 30.1048 8.49421 28.1885 6.57788C26.2722 4.66155 23.1653 4.66155 21.2491 6.5778Z" stroke="#1E8E31" stroke-width="1.5625" stroke-miterlimit="10" stroke-linecap="round" stroke-linejoin="round"/>
</g>
<defs>
<clipPath id="clip0_0_670">
<rect width="40" height="40" fill="white" transform="translate(0.5)"/>
</clipPath>
</defs>
</svg>
