<svg width="37" height="31" viewBox="0 0 37 31" fill="none" xmlns="http://www.w3.org/2000/svg">
<path d="M10.5 30.3977C8.35985 30.3977 6.53693 29.8153 5.03125 28.6506C3.52557 27.4763 2.375 25.7765 1.57955 23.5511C0.784091 21.3163 0.386364 18.6174 0.386364 15.4545C0.386364 12.3106 0.784091 9.62595 1.57955 7.40057C2.38447 5.16572 3.53977 3.46117 5.04545 2.28693C6.56061 1.10322 8.37879 0.511363 10.5 0.511363C12.6212 0.511363 14.4347 1.10322 15.9403 2.28693C17.4555 3.46117 18.6108 5.16572 19.4062 7.40057C20.2112 9.62595 20.6136 12.3106 20.6136 15.4545C20.6136 18.6174 20.2159 21.3163 19.4205 23.5511C18.625 25.7765 17.4744 27.4763 15.9688 28.6506C14.4631 29.8153 12.6402 30.3977 10.5 30.3977ZM10.5 27.2727C12.6212 27.2727 14.2689 26.25 15.4432 24.2045C16.6174 22.1591 17.2045 19.2424 17.2045 15.4545C17.2045 12.9356 16.9347 10.7907 16.3949 9.01989C15.8646 7.24905 15.0975 5.89962 14.0938 4.97159C13.0994 4.04356 11.9015 3.57955 10.5 3.57955C8.39773 3.57955 6.75474 4.61648 5.57102 6.69034C4.38731 8.75473 3.79545 11.6761 3.79545 15.4545C3.79545 17.9735 4.06061 20.1136 4.59091 21.875C5.12121 23.6364 5.88352 24.9763 6.87784 25.8949C7.88163 26.8134 9.08902 27.2727 10.5 27.2727ZM36.2386 0.90909V30H32.7159V4.60227H32.5455L25.4432 9.31818V5.73864L32.7159 0.90909H36.2386Z" fill="#1E8E31"/>
</svg>
