<svg width="46" height="31" viewBox="0 0 46 31" fill="none" xmlns="http://www.w3.org/2000/svg">
<path d="M10.5 30.3977C8.35985 30.3977 6.53693 29.8153 5.03125 28.6506C3.52557 27.4763 2.375 25.7765 1.57955 23.5511C0.784091 21.3163 0.386364 18.6174 0.386364 15.4545C0.386364 12.3106 0.784091 9.62595 1.57955 7.40057C2.38447 5.16572 3.53977 3.46117 5.04545 2.28693C6.56061 1.10322 8.37879 0.511363 10.5 0.511363C12.6212 0.511363 14.4347 1.10322 15.9403 2.28693C17.4555 3.46117 18.6108 5.16572 19.4062 7.40057C20.2112 9.62595 20.6136 12.3106 20.6136 15.4545C20.6136 18.6174 20.2159 21.3163 19.4205 23.5511C18.625 25.7765 17.4744 27.4763 15.9688 28.6506C14.4631 29.8153 12.6402 30.3977 10.5 30.3977ZM10.5 27.2727C12.6212 27.2727 14.2689 26.25 15.4432 24.2045C16.6174 22.1591 17.2045 19.2424 17.2045 15.4545C17.2045 12.9356 16.9347 10.7907 16.3949 9.01989C15.8646 7.24905 15.0975 5.89962 14.0938 4.97159C13.0994 4.04356 11.9015 3.57955 10.5 3.57955C8.39773 3.57955 6.75474 4.61648 5.57102 6.69034C4.38731 8.75473 3.79545 11.6761 3.79545 15.4545C3.79545 17.9735 4.06061 20.1136 4.59091 21.875C5.12121 23.6364 5.88352 24.9763 6.87784 25.8949C7.88163 26.8134 9.08902 27.2727 10.5 27.2727ZM35.8409 30.3977C33.9659 30.3977 32.2945 30.0758 30.8267 29.4318C29.3684 28.7879 28.2083 27.893 27.3466 26.7472C26.4943 25.5919 26.0303 24.2519 25.9545 22.7273H29.5341C29.6098 23.6648 29.9318 24.4744 30.5 25.1562C31.0682 25.8286 31.8116 26.3494 32.7301 26.7188C33.6487 27.0881 34.6667 27.2727 35.7841 27.2727C37.0341 27.2727 38.142 27.0549 39.108 26.6193C40.0739 26.1837 40.8314 25.5777 41.3807 24.8011C41.9299 24.0246 42.2045 23.125 42.2045 22.1023C42.2045 21.0322 41.9394 20.09 41.4091 19.2756C40.8788 18.4517 40.1023 17.8078 39.0795 17.3438C38.0568 16.8797 36.8068 16.6477 35.3295 16.6477H33V13.5227H35.3295C36.4848 13.5227 37.4981 13.3144 38.3693 12.8977C39.25 12.4811 39.9366 11.8939 40.429 11.1364C40.9309 10.3788 41.1818 9.48864 41.1818 8.46591C41.1818 7.48106 40.964 6.62405 40.5284 5.89489C40.0928 5.16572 39.4773 4.59754 38.6818 4.19034C37.8958 3.78314 36.9678 3.57955 35.8977 3.57955C34.8939 3.57955 33.947 3.7642 33.0568 4.13352C32.1761 4.49337 31.4564 5.01894 30.8977 5.71023C30.339 6.39205 30.036 7.21591 29.9886 8.18182H26.5795C26.6364 6.6572 27.0956 5.32197 27.9574 4.17614C28.8191 3.02083 29.946 2.12121 31.3381 1.47727C32.7396 0.833333 34.2784 0.511363 35.9545 0.511363C37.7538 0.511363 39.2973 0.875946 40.5852 1.60511C41.8731 2.32481 42.8627 3.27651 43.554 4.46023C44.2453 5.64394 44.5909 6.92235 44.5909 8.29545C44.5909 9.93371 44.16 11.3305 43.2983 12.4858C42.446 13.6411 41.286 14.4413 39.8182 14.8864V15.1136C41.6553 15.4167 43.09 16.1979 44.1222 17.4574C45.1544 18.7074 45.6705 20.2557 45.6705 22.1023C45.6705 23.6837 45.2396 25.1042 44.3778 26.3636C43.5256 27.6136 42.3608 28.5985 40.8835 29.3182C39.4063 30.0379 37.7254 30.3977 35.8409 30.3977Z" fill="#1E8E31"/>
</svg>
