<svg width="45" height="31" viewBox="0 0 45 31" fill="none" xmlns="http://www.w3.org/2000/svg">
<path d="M10.5 30.3977C8.35985 30.3977 6.53693 29.8153 5.03125 28.6506C3.52557 27.4763 2.375 25.7765 1.57955 23.5511C0.784091 21.3163 0.386364 18.6174 0.386364 15.4545C0.386364 12.3106 0.784091 9.62595 1.57955 7.40057C2.38447 5.16572 3.53977 3.46117 5.04545 2.28693C6.56061 1.10322 8.37879 0.511363 10.5 0.511363C12.6212 0.511363 14.4347 1.10322 15.9403 2.28693C17.4555 3.46117 18.6108 5.16572 19.4062 7.40057C20.2112 9.62595 20.6136 12.3106 20.6136 15.4545C20.6136 18.6174 20.2159 21.3163 19.4205 23.5511C18.625 25.7765 17.4744 27.4763 15.9688 28.6506C14.4631 29.8153 12.6402 30.3977 10.5 30.3977ZM10.5 27.2727C12.6212 27.2727 14.2689 26.25 15.4432 24.2045C16.6174 22.1591 17.2045 19.2424 17.2045 15.4545C17.2045 12.9356 16.9347 10.7907 16.3949 9.01989C15.8646 7.24905 15.0975 5.89962 14.0938 4.97159C13.0994 4.04356 11.9015 3.57955 10.5 3.57955C8.39773 3.57955 6.75474 4.61648 5.57102 6.69034C4.38731 8.75473 3.79545 11.6761 3.79545 15.4545C3.79545 17.9735 4.06061 20.1136 4.59091 21.875C5.12121 23.6364 5.88352 24.9763 6.87784 25.8949C7.88163 26.8134 9.08902 27.2727 10.5 27.2727ZM26.0114 30V27.4432L35.6136 16.9318C36.7405 15.7008 37.6686 14.6307 38.3977 13.7216C39.1269 12.803 39.6667 11.9413 40.017 11.1364C40.3769 10.322 40.5568 9.4697 40.5568 8.57955C40.5568 7.55682 40.3106 6.6714 39.8182 5.9233C39.3352 5.17519 38.6723 4.59754 37.8295 4.19034C36.9867 3.78314 36.0398 3.57955 34.9886 3.57955C33.8712 3.57955 32.8958 3.81155 32.0625 4.27557C31.2386 4.73011 30.5994 5.36932 30.1449 6.19318C29.6998 7.01705 29.4773 7.98295 29.4773 9.09091H26.125C26.125 7.38636 26.518 5.89015 27.304 4.60227C28.09 3.31439 29.16 2.3106 30.5142 1.59091C31.8778 0.871211 33.4072 0.511363 35.1023 0.511363C36.8068 0.511363 38.3172 0.871211 39.6335 1.59091C40.9498 2.3106 41.982 3.28125 42.7301 4.50284C43.4782 5.72443 43.8523 7.08333 43.8523 8.57955C43.8523 9.64962 43.6581 10.696 43.2699 11.7188C42.8911 12.732 42.2282 13.8636 41.2812 15.1136C40.3438 16.3542 39.0417 17.8693 37.375 19.6591L30.8409 26.6477V26.875H44.3636V30H26.0114Z" fill="#1E8E31"/>
</svg>
