<svg width="41" height="40" viewBox="0 0 41 40" fill="none" xmlns="http://www.w3.org/2000/svg">
<g clip-path="url(#clip0_0_647)">
<path d="M0.953247 37.3419L1.47177 38.509L20.0783 30.7939L23.3198 31.183L24.4866 34.7487L22.9308 36.24C22.3474 36.7585 22.153 37.6011 22.4772 38.3792L23.1255 40L33.8871 35.786L33.3037 34.2301C33.0444 33.452 32.3312 32.9984 31.4885 32.9984H29.3489L28.1821 30.2105L31.0346 28.7844C31.9422 28.3305 32.3312 27.2931 32.0071 26.3856L28.3119 16.4666C27.9229 15.4293 26.8206 14.9753 25.7833 15.2995C25.7833 15.2995 25.7187 15.2995 25.7187 15.3644L22.9957 16.5312L22.6066 15.5587L24.0979 13.8085C25.135 12.6413 25.7833 11.2153 25.9779 9.65939L27.858 7.39032C29.0897 5.96392 28.8304 3.82463 27.404 2.5926C27.1448 2.39823 26.8855 2.20387 26.6262 2.07408C25.913 1.74993 25.1998 1.68503 24.4221 1.87972L24.2274 1.29599C23.9032 0.258949 22.7364 -0.259886 21.764 0.129161L8.08462 5.05635C7.04727 5.4454 6.52875 6.54733 6.91779 7.51979V7.58469L7.24195 8.42736C5.55629 9.20545 4.77819 11.1504 5.36161 12.836C5.81555 14.1326 6.98237 15.0402 8.34388 15.2346L11.391 15.5587C12.6228 16.4666 14.1137 17.05 15.605 17.1795L17.7443 17.3742L18.1334 18.3466C17.6794 18.6059 17.3553 19.0598 17.2258 19.6432L16.7719 21.8474L0.953247 28.2656L1.40719 29.4973L10.4835 25.8671L12.6877 32.4796L0.953247 37.3419ZM32.0071 34.6192L32.1369 35.0079L23.8383 38.3144L23.644 37.9253C23.5791 37.666 23.644 37.4068 23.7738 37.2124L25.9779 35.1377L28.7655 34.2301H31.3588C31.6829 34.2301 31.8776 34.3596 32.0071 34.6192ZM27.9229 33.063L25.5889 33.8411L24.7462 31.3777C25.135 31.4422 25.4591 31.3777 25.7833 31.183L26.8855 30.6645L27.9229 33.063ZM26.1723 16.3368C26.4965 16.207 26.8855 16.3368 27.0153 16.661L27.5338 18.0225L24.3572 19.0598L24.7462 20.2916L27.9229 19.2542L28.7006 21.3289L25.6538 22.3659L26.0428 23.598L29.1546 22.5606L29.9327 24.635L26.9504 25.6075L27.3395 26.8395L30.3863 25.8022L30.7105 26.6448C30.8402 26.969 30.7105 27.2931 30.3863 27.4229L25.2647 29.9513C25.135 30.0162 25.0055 30.0162 24.8757 30.0162L20.4673 29.4973L18.0685 22.3014L18.5224 19.9025C18.5873 19.7081 18.7168 19.5135 18.9115 19.4486L26.1723 16.3368ZM26.1074 3.24091C27.1448 3.69485 27.6636 4.92657 27.2097 6.02881C27.1448 6.22318 27.0153 6.35297 26.8855 6.54733L26.1074 7.51979C26.0428 6.87149 25.913 6.28807 25.7187 5.63977L24.8757 3.11143C25.3296 3.04654 25.7187 3.11143 26.1074 3.24091ZM6.65822 12.5119C6.26949 11.4096 6.72311 10.2428 7.76047 9.72397L8.66803 11.9285C8.99218 12.7062 9.44613 13.4843 9.96464 14.1326L8.60314 14.0029C7.69557 13.938 6.91779 13.3546 6.65822 12.5119ZM15.8643 15.9478C13.2062 15.6885 10.8722 14.0029 9.89975 11.4745L8.21441 7.19564C8.08462 6.87149 8.21441 6.48244 8.53856 6.35297L22.2176 1.42577C22.4123 1.36088 22.5417 1.36088 22.7364 1.42577C22.8659 1.49067 22.9957 1.62014 23.0606 1.81482L24.4866 6.09371C25.2647 8.49225 24.7462 11.0855 23.1255 12.9655L21.1156 15.2995L21.6991 16.8553L19.3651 17.8278L18.7168 16.207L15.8643 15.9478ZM11.7152 25.3482L13.2062 24.7648L14.8269 29.692L16.0587 29.303L14.3733 24.2463L16.9665 23.2089L19.1707 29.7569L13.9194 31.9611L11.7152 25.3482Z" fill="#1E8E31"/>
<path d="M32.9798 11.346V11.9943H34.2764V11.346C34.2764 9.53082 35.7028 8.10442 37.518 8.10442V6.80781C35.7028 6.80781 34.2764 5.38172 34.2764 3.56628V2.91797H32.9798V3.56628C32.9798 5.38172 31.5537 6.80781 29.7383 6.80781V8.10442C31.5537 8.10442 32.9798 9.53082 32.9798 11.346ZM33.6281 5.90024C34.0172 6.54855 34.5357 7.06738 35.184 7.45611C34.5357 7.84516 34.0172 8.364 33.6281 9.0123C33.2391 8.364 32.7206 7.84516 32.0722 7.45611C32.7206 7.06738 33.2391 6.54855 33.6281 5.90024Z" fill="#1E8E31"/>
<path d="M4.45442 24.3108V24.9591H5.75104V24.3108C5.75104 22.4957 7.17744 21.0693 8.99257 21.0693V19.7727C7.17744 19.7727 5.75104 18.3466 5.75104 16.5311V15.8828H4.45442V16.5311C4.45442 18.3466 3.02834 19.7727 1.21289 19.7727V21.0693C3.02834 21.0693 4.45442 22.4957 4.45442 24.3108ZM5.10273 18.8651C5.49178 19.5134 6.0103 20.0322 6.6586 20.421C6.0103 20.81 5.49178 21.3288 5.10273 21.9771C4.71368 21.3288 4.19516 20.81 3.54686 20.421C4.19516 20.0322 4.71368 19.5134 5.10273 18.8651Z" fill="#1E8E31"/>
<path d="M36.8702 16.5311V15.8828H35.5736V16.5311C35.5736 18.3466 34.1475 19.7727 32.332 19.7727V21.0693C34.1475 21.0693 35.5736 22.4957 35.5736 24.3108V24.9591H36.8702V24.3108C36.8702 22.4957 38.2966 21.0693 40.1117 21.0693V19.7727C38.2966 19.7727 36.8702 18.3466 36.8702 16.5311ZM36.2219 21.9771C35.8328 21.3288 35.3143 20.81 34.666 20.421C35.3143 20.0322 35.8328 19.5134 36.2219 18.8651C36.6109 19.5134 37.1294 20.0322 37.7777 20.421C37.1294 20.81 36.6109 21.3288 36.2219 21.9771Z" fill="#1E8E31"/>
<path d="M20.2079 11.5407L21.1155 12.4483C24.6812 8.88258 21.3747 3.43687 21.1804 3.24219L20.0781 3.95539C20.143 3.95539 23.0604 8.68822 20.2079 11.5407Z" fill="#1E8E31"/>
</g>
<defs>
<clipPath id="clip0_0_647">
<rect width="40" height="40" fill="white" transform="translate(0.5)"/>
</clipPath>
</defs>
</svg>
