<svg width="41" height="40" viewBox="0 0 41 40" fill="none" xmlns="http://www.w3.org/2000/svg">
<path d="M16.75 11.875H18.625V13.125H16.75V11.875Z" fill="#1E8E31"/>
<path d="M22.375 11.875H24.25V13.125H22.375V11.875Z" fill="#1E8E31"/>
<path d="M20.5321 16.0851L20.9288 16.2173L21.324 15.0314L20.9274 14.8991C20.8386 14.8696 20.7576 14.8204 20.6903 14.7553C20.6231 14.6902 20.5713 14.6109 20.5388 14.5231C20.5063 14.4353 20.494 14.3414 20.5027 14.2482C20.5114 14.155 20.5409 14.0649 20.5891 13.9847L21.6623 12.1959L20.5905 11.5527L19.5172 13.3415C19.3728 13.5823 19.2842 13.8524 19.2581 14.132C19.232 14.4116 19.269 14.6934 19.3665 14.9568C19.4639 15.2201 19.6192 15.4582 19.8209 15.6535C20.0227 15.8488 20.2657 15.9963 20.5321 16.0851Z" fill="#1E8E31"/>
<path d="M18.4209 18.7379C19.0364 19.1498 19.7603 19.3697 20.501 19.3697C21.2416 19.3697 21.9656 19.1498 22.5811 18.7379L22.7227 18.6436L22.0293 17.6035L21.8877 17.6979C21.4774 17.9725 20.9947 18.1191 20.501 18.1191C20.0072 18.1191 19.5246 17.9725 19.1142 17.6979L18.9727 17.6035L18.2793 18.6436L18.4209 18.7379Z" fill="#1E8E31"/>
<path d="M10.4961 38.6719L11.1209 33.6733L12.3609 33.8283L11.7361 38.8269L10.4961 38.6719Z" fill="#1E8E31"/>
<path d="M37.3757 26.2494H34.2507V24.3744C34.2502 23.8773 34.0525 23.4007 33.7009 23.0492C33.3494 22.6977 32.8729 22.5 32.3757 22.4994H29.8757C29.3786 22.5 28.9021 22.6977 28.5506 23.0492C28.199 23.4007 28.0013 23.8773 28.0007 24.3744V24.6962L26.5297 24.2365C26.1981 24.1339 25.9018 23.941 25.6739 23.6793C25.4459 23.4176 25.2955 23.0975 25.2395 22.7551L24.8752 20.5696C25.5794 19.7967 26.1141 18.885 26.445 17.8932L27.2812 15.3845C27.6323 15.1004 27.8989 14.7255 28.052 14.3006C28.2051 13.8757 28.2389 13.4169 28.1496 12.9742L29.1003 11.0729C29.1737 10.9259 29.2334 10.7725 29.2786 10.6146L30.0693 7.84724C30.2253 7.30583 30.2046 6.72878 30.0102 6.19993C29.8158 5.67109 29.4578 5.21802 28.9883 4.90656L28.6856 4.70492C28.531 4.60197 28.3983 4.46929 28.2954 4.3146L27.874 3.68258C27.6317 3.31829 27.3031 3.0196 26.9174 2.81316C26.5316 2.60672 26.1008 2.49893 25.6633 2.49941H23.678C23.3737 2.49878 23.0777 2.40008 22.8339 2.21797L22.6526 2.08201C22.0269 1.6095 21.2814 1.32173 20.5006 1.25133C19.7197 1.18092 18.9347 1.3307 18.2347 1.68368L16.9003 2.35087C16.7048 2.44831 16.4895 2.49915 16.2711 2.49941H14.928C14.3534 2.50061 13.7944 2.68694 13.3339 3.0308L12.4551 3.6899C12.0362 4.00312 11.7194 4.43321 11.5444 4.92607C11.3694 5.41893 11.3441 5.95254 11.4716 6.45976L11.5514 6.77897C11.5988 6.96917 11.6059 7.16715 11.5725 7.36028C11.5391 7.55341 11.4657 7.73745 11.3571 7.90064C11.0653 8.33674 10.9095 8.84967 10.9095 9.37441C10.9095 9.89916 11.0653 10.4121 11.3571 10.8482L11.7855 11.4907C11.8179 11.5393 11.8472 11.5899 11.8733 11.6421C11.8856 11.6666 11.8995 11.6903 11.9149 11.7131L12.8345 13.0707C12.7655 13.5002 12.811 13.9404 12.9665 14.3466C13.122 14.7529 13.3821 15.1109 13.7203 15.3845L14.5565 17.8931C14.8874 18.8849 15.4221 19.7966 16.1263 20.5696L15.762 22.7551C15.706 23.0975 15.5556 23.4176 15.3276 23.6793C15.0997 23.941 14.8034 24.1339 14.4718 24.2365L9.39167 25.824C8.23837 26.1862 7.20063 26.8454 6.38258 27.7355C5.56453 28.6255 4.99495 29.715 4.73098 30.8946L3.01562 38.6138L4.23587 38.885L5.95123 31.1658C6.16719 30.2006 6.63322 29.3092 7.30253 28.581C7.97184 27.8528 8.8209 27.3135 9.76451 27.0171L11.707 26.4101L15.719 29.849C15.8323 29.946 15.9766 29.9994 16.1258 29.9994C16.2749 29.9994 16.4192 29.946 16.5325 29.849L18.1828 28.4344C18.2752 28.6625 18.4007 28.8756 18.5553 29.0671L16.7615 38.6342L17.99 38.8646L19.6784 29.8598C20.2847 30.0715 20.9493 30.0415 21.534 29.7761C22.1188 29.5107 22.5789 29.0302 22.8187 28.4344L23.0007 28.5905V36.8744C23.0013 37.3715 23.199 37.8481 23.5506 38.1996C23.9021 38.5511 24.3786 38.7488 24.8757 38.7494H37.3757C37.8729 38.7488 38.3494 38.5511 38.7009 38.1996C39.0525 37.8481 39.2502 37.3715 39.2507 36.8744V28.1244C39.2502 27.6273 39.0525 27.1507 38.7009 26.7992C38.3494 26.4477 37.8729 26.25 37.3757 26.2494ZM38.0007 28.1244V29.9994H24.2507V28.1244C24.2509 27.9587 24.3168 27.7998 24.434 27.6827C24.5512 27.5655 24.71 27.4996 24.8757 27.4994H37.3757C37.5415 27.4996 37.7003 27.5655 37.8175 27.6827C37.9347 27.7998 38.0006 27.9587 38.0007 28.1244ZM29.8757 23.7494H32.3757C32.5415 23.7496 32.7003 23.8155 32.8175 23.9327C32.9346 24.0498 33.0006 24.2087 33.0007 24.3744V26.2494H29.2507V24.3744C29.2509 24.2087 29.3168 24.0498 29.434 23.9327C29.5512 23.8155 29.71 23.7496 29.8757 23.7494ZM26.1568 25.4296L28.0007 26.0058V26.2494H24.8757C24.5503 26.2496 24.2305 26.3345 23.9478 26.4958C23.665 26.657 23.4291 26.8891 23.2633 27.1691L21.9758 26.0655C22.7186 25.8808 23.4198 25.5575 24.0427 25.1126L24.7978 24.5732C25.1683 24.9723 25.6369 25.2676 26.1568 25.4296ZM16.995 22.9606L17.2281 21.5622C17.6901 21.9026 18.1898 22.1888 18.7173 22.415L20.2545 23.0739C20.3323 23.1072 20.4161 23.1244 20.5007 23.1244C20.5854 23.1244 20.6691 23.1072 20.7469 23.0739L22.2842 22.415C22.8117 22.1888 23.3114 21.9026 23.7734 21.5622L24.0065 22.9606C24.0377 23.1446 24.0851 23.3254 24.1482 23.501L23.3161 24.0954C22.4946 24.6821 21.5103 24.9975 20.5007 24.9975C19.4912 24.9975 18.5069 24.6821 17.6854 24.0954L16.8533 23.501C16.9164 23.3254 16.9638 23.1446 16.995 22.9606ZM12.9713 11.0439C12.9272 10.9592 12.8786 10.8769 12.8256 10.7974L12.3972 10.1548C12.2426 9.92389 12.1601 9.65228 12.1602 9.37441C12.1602 9.09654 12.2427 8.82493 12.3972 8.594C12.6023 8.28584 12.7408 7.93831 12.8039 7.5736C12.8671 7.20889 12.8535 6.83502 12.7641 6.47585L12.6843 6.15664C12.6168 5.88806 12.6302 5.60551 12.7228 5.34453C12.8155 5.08355 12.9833 4.85581 13.2051 4.68997L14.0839 4.03079C14.3278 3.84872 14.6237 3.75005 14.928 3.74941H16.2711C16.6835 3.74893 17.0902 3.65291 17.4593 3.46888L18.7937 2.80169C19.2863 2.55328 19.8387 2.44787 20.3882 2.49743C20.9378 2.54699 21.4624 2.74952 21.9026 3.08207L22.0839 3.21795C22.5443 3.56186 23.1033 3.74823 23.678 3.74941H25.6633C25.895 3.74917 26.1231 3.80625 26.3274 3.91556C26.5316 4.02488 26.7056 4.18304 26.8339 4.37594L27.2553 5.00796C27.4496 5.30007 27.7001 5.5506 27.9922 5.74496L28.2949 5.94668C28.5436 6.1116 28.7331 6.35151 28.8361 6.63155C28.939 6.91158 28.95 7.21715 28.8673 7.50384L28.0767 10.271C28.0528 10.3547 28.0212 10.4359 27.9823 10.5138L27.4129 11.6526L27.297 11.5368L26.7187 9.80173C26.6772 9.67729 26.5976 9.56906 26.4912 9.49237C26.3848 9.41568 26.2569 9.37441 26.1257 9.37441C25.5122 9.37641 24.9123 9.1935 24.4043 8.84953C23.8962 8.50555 23.5036 8.01648 23.2776 7.44608L22.956 6.64233C22.9215 6.55598 22.8681 6.47842 22.7998 6.41532C22.7315 6.35221 22.65 6.30515 22.5611 6.27756C22.4723 6.24998 22.3785 6.24256 22.2864 6.25585C22.1944 6.26914 22.1065 6.30281 22.0291 6.35439L21.0987 6.97459C20.5857 7.31734 19.9824 7.5 19.3653 7.49941H19.0395C18.2465 7.49945 17.4685 7.71495 16.7886 8.12289L15.7437 8.74979C14.8483 9.28729 14.1746 10.1272 13.8441 11.1178L13.7045 11.5368L13.5273 11.714C13.5068 11.7344 13.4875 11.7557 13.4678 11.7768L12.9713 11.0439ZM14.8437 14.8017C14.7997 14.6699 14.7131 14.5565 14.5974 14.4794C14.4469 14.3791 14.3206 14.2466 14.2275 14.0916C14.1344 13.9365 14.0769 13.7627 14.059 13.5827C14.0412 13.4028 14.0635 13.2211 14.1244 13.0508C14.1853 12.8805 14.2832 12.7258 14.4111 12.5979L14.6926 12.3164C14.7613 12.2478 14.813 12.1641 14.8437 12.072L15.03 11.5131C15.2661 10.8055 15.7473 10.2056 16.3868 9.82165L17.4317 9.19474C17.9174 8.90338 18.4731 8.74946 19.0395 8.74941H19.3653C20.2292 8.75027 21.0738 8.49453 21.7921 8.01463L22.0815 7.82168L22.117 7.91033C22.4061 8.64056 22.89 9.27749 23.516 9.75182C24.142 10.2262 24.8861 10.5197 25.6673 10.6005L26.1578 12.0721C26.1885 12.1641 26.2402 12.2478 26.3089 12.3164L26.5904 12.5979C26.7183 12.7258 26.8162 12.8805 26.8771 13.0508C26.938 13.2211 26.9603 13.4028 26.9425 13.5827C26.9247 13.7627 26.8671 13.9365 26.774 14.0916C26.6809 14.2466 26.5546 14.3791 26.4041 14.4794C26.2884 14.5565 26.2018 14.6699 26.1578 14.8017L25.2591 17.4979C24.9797 18.3351 24.5264 19.1036 23.9288 19.7531C23.3312 20.4025 22.6029 20.9181 21.7918 21.266L20.5007 21.8194L19.2097 21.266C18.3986 20.9181 17.6703 20.4025 17.0727 19.753C16.4751 19.1036 16.0217 18.335 15.7424 17.4978L14.8437 14.8017ZM16.1257 28.5512L13.1146 25.9702L14.8447 25.4296C15.3647 25.2676 15.8332 24.9723 16.2037 24.5732L16.9588 25.1126C17.5817 25.5575 18.2829 25.8808 19.0257 26.0655L16.1257 28.5512ZM20.5007 28.7494C20.1727 28.749 19.858 28.6197 19.6243 28.3894C19.3907 28.1591 19.2569 27.8462 19.2517 27.5182L20.5007 26.4476L21.7498 27.5183C21.7446 27.8463 21.6108 28.1591 21.3772 28.3894C21.1435 28.6197 20.8288 28.749 20.5007 28.7494ZM37.3757 37.4994H24.8757C24.71 37.4992 24.5512 37.4333 24.434 37.3161C24.3168 37.199 24.2509 37.0401 24.2507 36.8744V31.2494H38.0007V36.8744C38.0006 37.0401 37.9347 37.199 37.8175 37.3161C37.7003 37.4333 37.5415 37.4992 37.3757 37.4994Z" fill="#1E8E31"/>
</svg>
