<svg width="19" height="19" viewBox="0 0 19 19" fill="none" xmlns="http://www.w3.org/2000/svg">
<path fill-rule="evenodd" clip-rule="evenodd" d="M16.2317 2.76117C14.4456 0.981543 12.0703 0.0010437 9.53973 0C4.32527 0 0.0814506 4.22339 0.0793531 9.4143C0.078654 11.0737 0.514222 12.6935 1.34213 14.1213L0 19L5.01509 17.6907C6.39696 18.4409 7.95267 18.8363 9.53589 18.8367H9.53985C14.7537 18.8367 18.998 14.613 19 9.42184C19.001 6.90605 18.0179 4.54068 16.2317 2.76117ZM9.53973 17.2467H9.53647C8.1256 17.2461 6.74187 16.8688 5.53444 16.1559L5.24744 15.9863L2.27141 16.7632L3.06576 13.8755L2.87873 13.5795C2.09161 12.3335 1.67597 10.8935 1.67667 9.41488C1.6783 5.10034 5.20573 1.59014 9.54288 1.59014C11.6431 1.59083 13.6174 2.40585 15.1019 3.885C16.5864 5.36416 17.4035 7.33026 17.4028 9.42126C17.4009 13.7362 13.8737 17.2467 9.53973 17.2467ZM13.8528 11.3859C13.6165 11.268 12.4542 10.6991 12.2375 10.6205C12.021 10.542 11.8632 10.5029 11.7058 10.7383C11.5481 10.9737 11.0952 11.5037 10.9573 11.6606C10.8193 11.8176 10.6816 11.8373 10.4451 11.7195C10.2087 11.6018 9.4471 11.3533 8.54415 10.5518C7.84151 9.92803 7.36714 9.15767 7.22917 8.92225C7.09144 8.68661 7.22801 8.57157 7.33288 8.44215C7.58877 8.12591 7.845 7.79436 7.92377 7.63746C8.00266 7.48044 7.96316 7.34302 7.90397 7.22531C7.845 7.1076 7.37226 5.94968 7.17534 5.4785C6.98331 5.01997 6.78859 5.0819 6.6434 5.07471C6.50567 5.06786 6.34802 5.06647 6.19036 5.06647C6.03282 5.06647 5.7767 5.12527 5.55996 5.36091C5.34334 5.59644 4.73275 6.16549 4.73275 7.32342C4.73275 8.48135 5.57977 9.59996 5.69793 9.75698C5.81608 9.914 7.36481 12.2902 9.73596 13.309C10.2999 13.5516 10.7402 13.6963 11.0836 13.8047C11.6499 13.9837 12.165 13.9585 12.5724 13.8979C13.0266 13.8303 13.9708 13.3288 14.168 12.7793C14.3649 12.2297 14.3649 11.7588 14.3057 11.6606C14.2467 11.5625 14.0891 11.5037 13.8528 11.3859Z" fill="white"/>
</svg>
