<svg width="41" height="40" viewBox="0 0 41 40" fill="none" xmlns="http://www.w3.org/2000/svg">
<g clip-path="url(#clip0_0_597)">
<path d="M24.6408 33.3597C24.2094 33.3597 23.8595 33.7095 23.8595 34.1409V38.4378H20.541C20.5341 38.4378 20.5274 38.4387 20.5205 38.4388C20.5137 38.4387 20.507 38.4378 20.5002 38.4378H17.1816V26.416C17.1816 25.9846 16.8318 25.6348 16.4004 25.6348C15.969 25.6348 15.6191 25.9846 15.6191 26.416V39.2191C15.6191 39.6505 15.969 40.0003 16.4004 40.0003H20.5002C20.507 40.0003 20.5138 39.9995 20.5206 39.9993C20.5275 39.9995 20.5341 40.0003 20.5411 40.0003H24.6408C25.0722 40.0003 25.422 39.6505 25.422 39.2191V34.1409C25.422 33.7095 25.0722 33.3597 24.6408 33.3597Z" fill="#1E8E31"/>
<path d="M25.1929 30.723C25.0477 30.5777 24.8461 30.4941 24.6406 30.4941C24.4352 30.4941 24.2336 30.5777 24.0883 30.723C23.943 30.8684 23.8594 31.0699 23.8594 31.2754C23.8594 31.4809 23.9429 31.6824 24.0883 31.8277C24.2336 31.9737 24.4352 32.0566 24.6406 32.0566C24.8461 32.0566 25.0477 31.9737 25.1929 31.8277C25.3382 31.6824 25.4219 31.4809 25.4219 31.2754C25.4219 31.0699 25.3383 30.8684 25.1929 30.723Z" fill="#1E8E31"/>
<path d="M24.6406 25.6348C24.2092 25.6348 23.8594 25.9846 23.8594 26.416V28.2555C23.8594 28.687 24.2092 29.0368 24.6406 29.0368C25.072 29.0368 25.4219 28.687 25.4219 28.2555V26.416C25.4219 25.9846 25.072 25.6348 24.6406 25.6348Z" fill="#1E8E31"/>
<path d="M27.7572 11.2663C26.8651 10.3657 25.4059 10.3322 24.5052 11.192C24.0525 11.6239 23.7992 12.206 23.7919 12.831C23.7845 13.4561 24.024 14.0438 24.4659 14.4859C25.5724 15.5923 26.1818 17.0634 26.1818 18.6282L26.1816 18.6753C26.17 20.1739 25.2958 21.4752 24.0316 22.1166C24.4093 21.4938 24.627 20.7636 24.627 19.9835V19.3752C24.627 17.0998 22.7758 15.2485 20.5003 15.2485C18.2248 15.2485 16.3736 17.0998 16.3736 19.3752V19.9835C16.3736 20.7637 16.5913 21.4938 16.969 22.1167C15.7048 21.4755 14.8305 20.1748 14.8189 18.678L14.8187 18.6283C14.8187 17.0634 15.4281 15.5923 16.5346 14.4859C16.9766 14.0438 17.216 13.4562 17.2087 12.831C17.2013 12.206 16.948 11.624 16.4954 11.192C15.5945 10.3322 14.1356 10.3656 13.2434 11.2663C11.2904 13.2379 10.2148 15.8524 10.2148 18.6282C10.2148 21.4228 11.3031 24.05 13.2792 26.026C13.5844 26.331 14.0789 26.331 14.3841 26.026C14.6892 25.7209 14.6892 25.2263 14.3841 24.9211C12.7031 23.2402 11.7774 21.0053 11.7774 18.6281C11.7774 16.2669 12.6923 14.0429 14.3535 12.3659C14.6507 12.0659 15.1275 12.0464 15.4168 12.3223C15.5624 12.4613 15.6439 12.6484 15.6463 12.8492C15.6487 13.0502 15.5718 13.239 15.4298 13.3809C14.0283 14.7825 13.2564 16.646 13.2564 18.6282L13.2566 18.6875C13.2799 21.6743 15.742 24.1043 18.7451 24.1043H20.2819C20.3543 24.1081 20.4271 24.1102 20.5004 24.1102C20.5737 24.1102 20.6466 24.1081 20.7189 24.1043H22.2557C25.2587 24.1043 27.7209 21.6743 27.7442 18.6846L27.7444 18.6282C27.7444 16.646 26.9725 14.7825 25.5709 13.3809C25.429 13.239 25.352 13.0502 25.3545 12.8492C25.3568 12.6485 25.4383 12.4614 25.584 12.3223C25.8732 12.0465 26.3503 12.0659 26.6473 12.3659C28.3085 14.0429 29.2234 16.2669 29.2234 18.6281C29.2234 21.0053 28.2976 23.2402 26.6166 24.9211C26.3116 25.2262 26.3116 25.7209 26.6166 26.026C26.7692 26.1785 26.9691 26.2548 27.1691 26.2548C27.369 26.2548 27.5689 26.1785 27.7215 26.026C29.6976 24.05 30.7859 21.4227 30.7859 18.6282C30.7856 15.8524 29.7102 13.2379 27.7572 11.2663ZM23.0645 19.9835C23.0645 21.342 22.0024 22.4565 20.6652 22.5419H20.3352C18.998 22.4565 17.9359 21.342 17.9359 19.9835V19.3752C17.9359 17.9613 19.0863 16.811 20.5002 16.811C21.9141 16.811 23.0645 17.9613 23.0645 19.3752V19.9835Z" fill="#1E8E31"/>
<path d="M9.14187 30.6587C9.88039 29.9734 10.3438 28.9954 10.3438 27.9109V27.3711C10.3438 25.3033 8.66156 23.6211 6.59375 23.6211C4.52594 23.6211 2.84375 25.3033 2.84375 27.3711V27.9109C2.84375 28.9955 3.30711 29.9734 4.04562 30.6587C1.95492 31.6254 0.5 33.7414 0.5 36.192V39.22C0.5 39.6514 0.849844 40.0012 1.28125 40.0012H11.9062C12.3377 40.0012 12.6875 39.6514 12.6875 39.22V36.192C12.6875 33.7414 11.2326 31.6254 9.14187 30.6587ZM4.40625 27.371C4.40625 26.1648 5.38758 25.1835 6.59375 25.1835C7.79992 25.1835 8.78125 26.1648 8.78125 27.371V27.9108C8.78125 29.117 7.79992 30.0983 6.59375 30.0983C5.38758 30.0983 4.40625 29.117 4.40625 27.9108V27.371ZM11.125 38.4387H2.0625V36.192C2.0625 33.6935 4.09523 31.6608 6.59375 31.6608C9.09227 31.6608 11.125 33.6935 11.125 36.192V38.4387Z" fill="#1E8E31"/>
<path d="M36.9544 30.6587C37.6929 29.9734 38.1562 28.9954 38.1562 27.9109V27.3711C38.1562 25.3033 36.4741 23.6211 34.4062 23.6211C32.3384 23.6211 30.6562 25.3033 30.6562 27.3711V27.9109C30.6562 28.9955 31.1196 29.9734 31.8581 30.6587C29.7674 31.6254 28.3125 33.7414 28.3125 36.192V39.22C28.3125 39.6514 28.6623 40.0012 29.0938 40.0012H39.7188C40.1502 40.0012 40.5 39.6514 40.5 39.22V36.192C40.5 33.7414 39.0451 31.6254 36.9544 30.6587ZM32.2188 27.371C32.2188 26.1648 33.2001 25.1835 34.4062 25.1835C35.6124 25.1835 36.5938 26.1648 36.5938 27.371V27.9108C36.5938 29.117 35.6124 30.0983 34.4062 30.0983C33.2001 30.0983 32.2188 29.117 32.2188 27.9108V27.371ZM38.9375 38.4387H29.875V36.192C29.875 33.6935 31.9077 31.6608 34.4062 31.6608C36.9048 31.6608 38.9375 33.6935 38.9375 36.192V38.4387Z" fill="#1E8E31"/>
<path d="M26.7095 0H24.0821H16.9165H14.2891C13.8577 0 13.5078 0.349766 13.5078 0.78125V2.93094C13.5078 4.5907 14.7005 5.97641 16.2736 6.27797C16.6964 7.91164 18.0459 9.17531 19.7249 9.47516V10.9895H18.4979C18.0665 10.9895 17.7166 11.3393 17.7166 11.7708C17.7166 12.2023 18.0665 12.552 18.4979 12.552H22.5145C22.9459 12.552 23.2958 12.2023 23.2958 11.7708C23.2958 11.3393 22.9459 10.9895 22.5145 10.9895H21.2874V9.47266C22.9601 9.16836 24.3033 7.90719 24.7249 6.27797C26.298 5.97641 27.4908 4.5907 27.4908 2.93094V0.78125C27.4908 0.349766 27.1409 0 26.7095 0ZM16.1352 4.60352C15.5066 4.30875 15.0703 3.66984 15.0703 2.93094V1.5625H16.1352V4.60352ZM23.3009 5.1868H23.3009C23.3009 6.72797 22.047 7.9818 20.5059 7.9818H20.4927C18.9515 7.9818 17.6977 6.72797 17.6977 5.1868V1.5625H23.3009V5.1868ZM25.9283 2.93094C25.9283 3.66984 25.492 4.30875 24.8634 4.60352V1.5625H25.9283V2.93094Z" fill="#1E8E31"/>
<path d="M36.9062 9.21875C36.4748 9.21875 36.125 9.56852 36.125 10V10.9711C36.125 11.4026 36.4748 11.7523 36.9062 11.7523C37.3377 11.7523 37.6875 11.4026 37.6875 10.9711V10C37.6875 9.56852 37.3377 9.21875 36.9062 9.21875Z" fill="#1E8E31"/>
<path d="M36.9062 13.873C36.4748 13.873 36.125 14.2228 36.125 14.6543V15.6254C36.125 16.0569 36.4748 16.4066 36.9062 16.4066C37.3377 16.4066 37.6875 16.0569 37.6875 15.6254V14.6543C37.6875 14.2228 37.3377 13.873 36.9062 13.873Z" fill="#1E8E31"/>
<path d="M39.7191 12.0312H38.748C38.3166 12.0312 37.9668 12.381 37.9668 12.8125C37.9668 13.244 38.3166 13.5938 38.748 13.5938H39.7191C40.1505 13.5938 40.5004 13.244 40.5004 12.8125C40.5004 12.381 40.1505 12.0312 39.7191 12.0312Z" fill="#1E8E31"/>
<path d="M35.0648 12.0312H34.0938C33.6623 12.0312 33.3125 12.381 33.3125 12.8125C33.3125 13.244 33.6623 13.5938 34.0938 13.5938H35.0648C35.4962 13.5938 35.8461 13.244 35.8461 12.8125C35.8461 12.381 35.4962 12.0312 35.0648 12.0312Z" fill="#1E8E31"/>
<path d="M4.09375 1.40625C3.66234 1.40625 3.3125 1.75602 3.3125 2.1875V3.15859C3.3125 3.59008 3.66234 3.93984 4.09375 3.93984C4.52516 3.93984 4.875 3.59008 4.875 3.15859V2.1875C4.875 1.75602 4.52516 1.40625 4.09375 1.40625Z" fill="#1E8E31"/>
<path d="M4.09375 6.06055C3.66234 6.06055 3.3125 6.41031 3.3125 6.8418V7.81289C3.3125 8.24437 3.66234 8.59414 4.09375 8.59414C4.52516 8.59414 4.875 8.24437 4.875 7.81289V6.8418C4.875 6.41031 4.52516 6.06055 4.09375 6.06055Z" fill="#1E8E31"/>
<path d="M6.90664 4.21875H5.93555C5.50414 4.21875 5.1543 4.56852 5.1543 5C5.1543 5.43148 5.50414 5.78125 5.93555 5.78125H6.90664C7.33805 5.78125 7.68789 5.43148 7.68789 5C7.68789 4.56852 7.33805 4.21875 6.90664 4.21875Z" fill="#1E8E31"/>
<path d="M2.25234 4.21875H1.28125C0.849844 4.21875 0.5 4.56852 0.5 5C0.5 5.43148 0.849844 5.78125 1.28125 5.78125H2.25234C2.68375 5.78125 3.03359 5.43148 3.03359 5C3.03359 4.56852 2.68375 4.21875 2.25234 4.21875Z" fill="#1E8E31"/>
</g>
<defs>
<clipPath id="clip0_0_597">
<rect width="40" height="40" fill="white" transform="translate(0.5)"/>
</clipPath>
</defs>
</svg>
