<svg width="127" height="25" viewBox="0 0 127 25" fill="none" xmlns="http://www.w3.org/2000/svg"><path d="M19.11.54v14.11c0 2.38-.3 4.3-.88 5.75a5.81 5.81 0 0 1-2.92 3.12c-1.34.64-3.13.96-5.38.96-2.38 0-4.28-.32-5.7-.96a6.04 6.04 0 0 1-3.1-3.12 14.52 14.52 0 0 1-.95-5.75V.54h5.2v14.11c0 1.47.12 2.63.37 3.47.27.81.73 1.4 1.36 1.73.64.34 1.49.51 2.55.51a5.2 5.2 0 0 0 2.52-.5 2.77 2.77 0 0 0 1.32-1.74c.28-.84.41-2 .41-3.47V.54h5.2ZM32.7.2c2.06 0 3.73.22 5 .65a4.72 4.72 0 0 1 2.82 2.14c.61 1 .92 2.39.92 4.18a8.7 8.7 0 0 1-.45 2.89 4 4 0 0 1-1.39 1.97c-.66.5-1.55.82-2.69.95v.17a4.13 4.13 0 0 1 2.52 1.6c.39.48.67 1.12.85 1.94L42.32 24h-5.47l-1.8-7.14c-.2-.77-.52-1.3-.92-1.6-.39-.3-.93-.44-1.64-.44h-3.9a286.03 286.03 0 0 1-4.56-.14l.1-3.77h8.47c.9 0 1.62-.1 2.14-.27.54-.2.92-.56 1.12-1.06.23-.5.34-1.19.34-2.07 0-.9-.11-1.6-.34-2.07-.2-.5-.58-.84-1.12-1.02a6.13 6.13 0 0 0-2.14-.31c-2.13 0-3.94.01-5.4.03-1.48.03-2.5.06-3.04.1l-.5-3.7a41.95 41.95 0 0 1 5.43-.3C30.1.2 31.3.2 32.7.2Zm-3.91.34V24h-5.14V.54h5.14Zm36.73 0v21.59c0 1.25-.62 1.87-1.87 1.87H60.8c-.57 0-1-.12-1.3-.37a4.03 4.03 0 0 1-.81-1.2l-6.5-12.3c-.27-.52-.54-1.1-.81-1.74-.25-.63-.46-1.24-.65-1.83h-.37c.07.61.12 1.23.17 1.87.05.61.07 1.22.07 1.83V24h-4.93V2.41c0-1.25.63-1.87 1.9-1.87h2.82c.55 0 .96.14 1.23.4.3.26.58.64.85 1.16l6.29 11.94a42.02 42.02 0 0 1 1.7 3.7h.4c-.06-.68-.12-1.33-.16-1.97-.03-.66-.04-1.3-.04-1.94L60.63.54h4.9Zm9.51-.1c1.27 0 2.55 0 3.85.03 1.29 0 2.56.02 3.8.07 1.25.05 2.42.12 3.5.24l-.23 3.77h-9.01c-.57 0-1 .15-1.3.44-.27.3-.4.73-.4 1.3v11.96c0 .57.13 1 .4 1.3.3.3.73.44 1.3.44h9l.25 3.77c-1.1.1-2.26.17-3.5.24-1.25.05-2.52.07-3.81.07l-3.85.03c-1.5 0-2.7-.43-3.63-1.29a4.58 4.58 0 0 1-1.36-3.43V5.16a4.5 4.5 0 0 1 1.36-3.43 5.14 5.14 0 0 1 3.63-1.3Zm-4.38 9.52h14.04v3.67H70.65V9.96ZM94.86.44a202.04 202.04 0 0 1 7.38.13c1.22.05 2.36.13 3.4.24l-.27 3.74h-8.5c-.62 0-1.08.15-1.4.44-.32.3-.47.73-.47 1.3V24h-5.2V5.23c0-1.45.46-2.6 1.39-3.47A5.1 5.1 0 0 1 94.86.44Zm-4.45 9.93h13.7v3.67H90.4v-3.67ZM117.8.2c2.2 0 3.92.23 5.17.68a4.47 4.47 0 0 1 2.65 2.35c.54 1.1.81 2.66.81 4.65 0 2-.26 3.55-.78 4.66a4.36 4.36 0 0 1-2.48 2.35 13.8 13.8 0 0 1-4.7.64 33.8 33.8 0 0 1-3.05-.13 42.85 42.85 0 0 1-5-.75 5.36 5.36 0 0 1-1.26-.44l.1-2.59h8.43a5.93 5.93 0 0 0 2.11-.34c.53-.2.89-.57 1.1-1.12.22-.54.33-1.3.33-2.28 0-1-.11-1.76-.34-2.3a1.8 1.8 0 0 0-1.09-1.13c-.5-.23-1.2-.34-2.1-.34-2.09 0-3.88.01-5.38.03-1.5.03-2.5.07-3.02.14l-.51-3.74a41.99 41.99 0 0 1 5.4-.3c1-.03 2.2-.04 3.6-.04Zm-3.81.34V24h-5.2V.54h5.2Z" fill="black"/></svg>